<svg width="24" height="24" viewBox="0 0 24 24" fill="#fff" xmlns="http://www.w3.org/2000/svg">
<path d="M15.3333 5.3335H8.66667C4.98476 5.3335 2 8.31825 2 12.0002C2 15.6821 4.98476 18.6668 8.66667 18.6668H15.3333C19.0152 18.6668 22 15.6821 22 12.0002C22 8.31825 19.0152 5.3335 15.3333 5.3335ZM4.22222 12.0002C4.22222 9.54388 6.21003 7.55572 8.66667 7.55572C11.123 7.55572 13.1111 9.54353 13.1111 12.0002C13.1111 14.4564 11.1233 16.4446 8.66667 16.4446C6.21038 16.4446 4.22222 14.4568 4.22222 12.0002ZM15.3333 16.4446H13.6352C15.8997 13.9148 15.9004 10.0863 13.6352 7.55572H15.3333C17.7896 7.55572 19.7778 9.54353 19.7778 12.0002C19.7778 14.4564 17.79 16.4446 15.3333 16.4446Z" fill="#fff"/>
</svg>
