<svg width="60" height="60" viewBox="0 0 60 60" fill="none" xmlns="http://www.w3.org/2000/svg">
<path fill-rule="evenodd" clip-rule="evenodd" d="M21.3333 5.45455C12.4968 5.45455 5.33333 12.7808 5.33333 21.8182C5.33333 30.3964 11.7873 37.4329 20 38.1258V21.8182C20 20.312 21.1939 19.0909 22.6667 19.0909H37.1121C35.8426 11.3517 29.2613 5.45455 21.3333 5.45455ZM42.5016 19.0909C41.1894 8.32823 32.2123 0 21.3333 0C9.55124 0 0 9.76832 0 21.8182C0 33.4101 8.83901 42.8905 20 43.5944V57.2727C20 58.779 21.1939 60 22.6667 60H57.3333C58.8061 60 60 58.779 60 57.2727V21.8182C60 20.312 58.8061 19.0909 57.3333 19.0909H42.5016ZM25.3333 24.5455V54.5455H54.6667V24.5455H25.3333Z" fill="white"/>
</svg>
