<svg width="72" height="60" viewBox="0 0 72 60" fill="none" xmlns="http://www.w3.org/2000/svg">
<path fill-rule="evenodd" clip-rule="evenodd" d="M6.50352 3.24324C6.50352 1.45205 7.95937 0 9.75526 0H61.7832C63.5791 0 65.0349 1.45205 65.0349 3.24324V35.188L71.3946 55.803C71.6981 56.7867 71.5154 57.8557 70.9024 58.6836C70.2893 59.5115 69.3186 60 68.2867 60H3.25177C2.21984 60 1.24917 59.5115 0.636101 58.6836C0.0230308 57.8557 -0.159653 56.7867 0.143822 55.803L6.50352 35.188V3.24324ZM12.1569 38.9189L7.6545 53.5135H23.6328L26.0031 46.0479C26.4311 44.6999 27.6854 43.7838 29.1031 43.7838H42.4353C43.853 43.7838 45.1073 44.6999 45.5353 46.0479L47.9056 53.5135H63.884L59.3815 38.9189H12.1569ZM58.5314 32.4324V6.48649H13.007V32.4324H58.5314ZM41.0839 53.5135L40.0541 50.2703H31.4843L30.4546 53.5135H41.0839Z" fill="white"/>
</svg>
