<svg width="60" height="60" viewBox="0 0 60 60" fill="none" xmlns="http://www.w3.org/2000/svg">
<path fill-rule="evenodd" clip-rule="evenodd" d="M6.81818 5.45455C6.06507 5.45455 5.45455 6.06507 5.45455 6.81818V18.1818H54.5455V6.81818C54.5455 6.06507 53.9349 5.45455 53.1818 5.45455H6.81818ZM60 6.81818C60 3.0526 56.9474 0 53.1818 0H6.81818C3.0526 0 0 3.0526 0 6.81818V53.1818C0 56.9474 3.0526 60 6.81818 60H53.1818C56.9474 60 60 56.9474 60 53.1818V6.81818ZM54.5455 23.6363H23.6363V54.5455H53.1818C53.9349 54.5455 54.5455 53.9349 54.5455 53.1818V23.6363ZM18.1818 54.5455V23.6363H5.45455V53.1818C5.45455 53.9349 6.06507 54.5455 6.81818 54.5455H18.1818Z" fill="white"/>
</svg>
