<svg width="60" height="60" viewBox="0 0 60 60" fill="none" xmlns="http://www.w3.org/2000/svg">
<path d="M21.5992 13.9989L21.8752 14.6081L22.3571 15.6038C23.0191 16.9372 23.8237 18.4308 24.7731 20.0454C26.4563 22.9081 28.3707 25.7785 30.5188 28.5824L31.3716 17.5823C31.4789 16.1899 32.617 15.1229 33.9815 15.0699L34.3 15.076C35.6945 15.1831 36.7631 16.3195 36.8162 17.6819L36.8101 18L35.5363 34.5213L35.6192 34.6108C36.2137 35.2479 36.8394 35.8996 37.495 36.5649C39.2518 38.3478 41.2067 40.2126 43.3252 42.1376C46.7339 45.2348 50.3933 48.3342 54.0534 51.284L56.2539 53.0385L58.9169 55.1042C60.1186 56.0109 60.3565 57.7187 59.4484 58.9185C58.5403 60.1184 56.8299 60.356 55.6283 59.4492L54.2419 58.3838L52.1504 56.7406L50.6275 55.522C46.8894 52.5094 43.1505 49.3426 39.6541 46.1657C37.4652 44.1768 35.4387 42.2437 33.6068 40.3845C32.8402 39.6065 32.1101 38.8439 31.4182 38.0974L18.8195 36.8396C17.3207 36.69 16.2273 35.3555 16.3771 33.859C16.5163 32.4694 17.6786 31.4287 19.0439 31.407L19.3622 31.4204L26.3634 32.1219C24.0034 29.0626 21.9078 25.9296 20.0693 22.8027C19.0529 21.0742 18.1876 19.4679 17.4701 18.0227L17.0801 17.2229L16.5825 16.137C15.9912 14.7538 16.6349 13.1538 18.0202 12.5634C19.4055 11.973 21.0079 12.6157 21.5992 13.9989ZM26.6069 0.991327C36.2186 2.11099 43.578 4.13179 47.9999 7.44317C52.5036 10.8159 55.2188 16.3409 56.5767 23.3563C57.6095 28.6914 57.7649 34.2865 57.4178 39.3707L57.2768 41.0509C57.2687 41.1269 57.261 41.1953 57.2539 41.256C57.0779 42.7497 55.7226 43.8181 54.2267 43.6423C52.7307 43.4666 51.6607 42.1133 51.8367 40.6197L51.9492 39.3737L51.9759 39.0002C52.2937 34.3457 52.1504 29.1896 51.2213 24.3898C50.0961 18.577 47.953 14.2159 44.7272 11.8002C41.2945 9.2296 34.6904 7.4162 25.9748 6.40092C19.3078 5.62428 12.297 5.38187 6.06374 5.46063L5.50362 5.46889L5.51349 5.73682C5.53451 6.39703 5.56086 7.08503 5.59305 7.79784L5.70763 10.0077C6.02415 15.4256 6.59353 20.8401 7.47552 25.8724C8.99949 34.5676 11.3048 41.1443 14.3252 44.5909C16.7804 47.3926 20.0266 49.4739 23.8995 50.9143C26.8301 52.0042 29.9902 52.6805 33.2117 53.0137C35.1124 53.2102 36.8243 53.2693 38.2423 53.2421L39.3362 53.2C40.838 53.0847 42.1491 54.2068 42.2646 55.7063C42.3801 57.2058 41.2563 58.5149 39.7545 58.6303L39.1525 58.6632C34.0976 58.8726 27.9665 58.2386 21.9956 56.018C17.3241 54.2806 13.3178 51.712 10.2202 48.1773C6.36787 43.7813 3.78593 36.4155 2.10264 26.8112C1.18054 21.55 0.590153 15.9358 0.262355 10.3249C0.216519 9.54033 0.177226 8.77804 0.143951 8.04094L0.0616568 5.90811L0.00725267 3.63424L0 2.81383C0 1.35397 1.15293 0.153818 2.61373 0.0930433L4.09141 0.0488696C10.9962 -0.111465 18.9781 0.102649 26.6069 0.991327Z" fill="white"/>
</svg>
