<svg width="349" height="57" viewBox="0 0 349 57" fill="none" xmlns="http://www.w3.org/2000/svg">
<g filter="url(#filter0_d_1898_49)">
<rect x="143" width="202" height="5" fill="white"/>
</g>
<g filter="url(#filter1_d_1898_49)">
<rect x="143" y="44" width="202" height="5" fill="white"/>
</g>
<g filter="url(#filter2_d_1898_49)">
<path d="M154.298 35.002C155.222 35.002 155.978 34.932 156.566 34.792C157.182 34.624 157.672 34.414 158.036 34.162C158.4 33.882 158.652 33.56 158.792 33.196C158.932 32.832 159.002 32.426 159.002 31.978C159.002 31.026 158.554 30.242 157.658 29.626C156.762 28.982 155.222 28.296 153.038 27.568C152.086 27.232 151.134 26.854 150.182 26.434C149.23 25.986 148.376 25.44 147.62 24.796C146.864 24.124 146.248 23.326 145.772 22.402C145.296 21.45 145.058 20.302 145.058 18.958C145.058 17.614 145.31 16.41 145.814 15.346C146.318 14.254 147.032 13.33 147.956 12.574C148.88 11.818 150 11.244 151.316 10.852C152.632 10.432 154.116 10.222 155.768 10.222C157.728 10.222 159.422 10.432 160.85 10.852C162.278 11.272 163.454 11.734 164.378 12.238L162.488 17.404C161.676 16.984 160.766 16.62 159.758 16.312C158.778 15.976 157.588 15.808 156.188 15.808C154.62 15.808 153.486 16.032 152.786 16.48C152.114 16.9 151.778 17.558 151.778 18.454C151.778 18.986 151.904 19.434 152.156 19.798C152.408 20.162 152.758 20.498 153.206 20.806C153.682 21.086 154.214 21.352 154.802 21.604C155.418 21.828 156.09 22.066 156.818 22.318C158.33 22.878 159.646 23.438 160.766 23.998C161.886 24.53 162.81 25.16 163.538 25.888C164.294 26.616 164.854 27.47 165.218 28.45C165.582 29.43 165.764 30.62 165.764 32.02C165.764 34.736 164.812 36.85 162.908 38.362C161.004 39.846 158.134 40.588 154.298 40.588C153.01 40.588 151.848 40.504 150.812 40.336C149.776 40.196 148.852 40.014 148.04 39.79C147.256 39.566 146.57 39.328 145.982 39.076C145.422 38.824 144.946 38.586 144.554 38.362L146.402 33.154C147.27 33.63 148.334 34.064 149.594 34.456C150.882 34.82 152.45 35.002 154.298 35.002ZM190.293 40C189.985 38.992 189.635 37.956 189.243 36.892C188.879 35.828 188.515 34.764 188.151 33.7H176.811C176.447 34.764 176.069 35.828 175.677 36.892C175.313 37.956 174.977 38.992 174.669 40H167.865C168.957 36.864 169.993 33.966 170.973 31.306C171.953 28.646 172.905 26.14 173.829 23.788C174.781 21.436 175.705 19.21 176.601 17.11C177.525 14.982 178.477 12.91 179.457 10.894H185.715C186.667 12.91 187.605 14.982 188.529 17.11C189.453 19.21 190.377 21.436 191.301 23.788C192.253 26.14 193.219 28.646 194.199 31.306C195.179 33.966 196.215 36.864 197.307 40H190.293ZM182.439 17.488C182.299 17.908 182.089 18.482 181.809 19.21C181.529 19.938 181.207 20.778 180.843 21.73C180.479 22.682 180.073 23.732 179.625 24.88C179.205 26.028 178.771 27.232 178.323 28.492H186.597C186.149 27.232 185.715 26.028 185.295 24.88C184.875 23.732 184.469 22.682 184.077 21.73C183.713 20.778 183.391 19.938 183.111 19.21C182.831 18.482 182.607 17.908 182.439 17.488ZM220.605 40C218.729 36.668 216.699 33.378 214.515 30.13C212.331 26.882 210.007 23.816 207.543 20.932V40H201.075V10.894H206.409C207.333 11.818 208.355 12.952 209.475 14.296C210.595 15.64 211.729 17.082 212.877 18.622C214.053 20.134 215.215 21.716 216.363 23.368C217.511 24.992 218.589 26.56 219.597 28.072V10.894H226.107V40H220.605ZM254.409 10.894V16.48H245.631V40H239.079V16.48H230.301V10.894H254.409ZM274.662 40C274.354 38.992 274.004 37.956 273.612 36.892C273.248 35.828 272.884 34.764 272.52 33.7H261.18C260.816 34.764 260.438 35.828 260.046 36.892C259.682 37.956 259.346 38.992 259.038 40H252.234C253.326 36.864 254.362 33.966 255.342 31.306C256.322 28.646 257.274 26.14 258.198 23.788C259.15 21.436 260.074 19.21 260.97 17.11C261.894 14.982 262.846 12.91 263.826 10.894H270.084C271.036 12.91 271.974 14.982 272.898 17.11C273.822 19.21 274.746 21.436 275.67 23.788C276.622 26.14 277.588 28.646 278.568 31.306C279.548 33.966 280.584 36.864 281.676 40H274.662ZM266.808 17.488C266.668 17.908 266.458 18.482 266.178 19.21C265.898 19.938 265.576 20.778 265.212 21.73C264.848 22.682 264.442 23.732 263.994 24.88C263.574 26.028 263.14 27.232 262.692 28.492H270.966C270.518 27.232 270.084 26.028 269.664 24.88C269.244 23.732 268.838 22.682 268.446 21.73C268.082 20.778 267.76 19.938 267.48 19.21C267.2 18.482 266.976 17.908 266.808 17.488ZM304.974 40C303.098 36.668 301.068 33.378 298.884 30.13C296.7 26.882 294.376 23.816 291.912 20.932V40H285.444V10.894H290.778C291.702 11.818 292.724 12.952 293.844 14.296C294.964 15.64 296.098 17.082 297.246 18.622C298.422 20.134 299.584 21.716 300.732 23.368C301.88 24.992 302.958 26.56 303.966 28.072V10.894H310.476V40H304.974ZM336.678 40C336.37 38.992 336.02 37.956 335.628 36.892C335.264 35.828 334.9 34.764 334.536 33.7H323.196C322.832 34.764 322.454 35.828 322.062 36.892C321.698 37.956 321.362 38.992 321.054 40H314.25C315.342 36.864 316.378 33.966 317.358 31.306C318.338 28.646 319.29 26.14 320.214 23.788C321.166 21.436 322.09 19.21 322.986 17.11C323.91 14.982 324.862 12.91 325.842 10.894H332.1C333.052 12.91 333.99 14.982 334.914 17.11C335.838 19.21 336.762 21.436 337.686 23.788C338.638 26.14 339.604 28.646 340.584 31.306C341.564 33.966 342.6 36.864 343.692 40H336.678ZM328.824 17.488C328.684 17.908 328.474 18.482 328.194 19.21C327.914 19.938 327.592 20.778 327.228 21.73C326.864 22.682 326.458 23.732 326.01 24.88C325.59 26.028 325.156 27.232 324.708 28.492H332.982C332.534 27.232 332.1 26.028 331.68 24.88C331.26 23.732 330.854 22.682 330.462 21.73C330.098 20.778 329.776 19.938 329.496 19.21C329.216 18.482 328.992 17.908 328.824 17.488Z" fill="white"/>
</g>
<g filter="url(#filter3_d_1898_49)">
<path fill-rule="evenodd" clip-rule="evenodd" d="M133 0H4V48H133V0ZM19.796 36.64C22.288 39.272 25.9 40.588 30.632 40.588C32.844 40.588 34.79 40.364 36.47 39.916C38.15 39.468 39.452 38.964 40.376 38.404L38.57 33.154C38.206 33.322 37.8 33.504 37.352 33.7C36.904 33.896 36.386 34.078 35.798 34.246C35.21 34.386 34.538 34.512 33.782 34.624C33.026 34.736 32.172 34.792 31.22 34.792C29.708 34.792 28.42 34.554 27.356 34.078C26.292 33.574 25.424 32.902 24.752 32.062C24.108 31.222 23.632 30.228 23.324 29.08C23.044 27.904 22.904 26.644 22.904 25.3C22.904 23.62 23.128 22.192 23.576 21.016C24.024 19.84 24.612 18.888 25.34 18.16C26.096 17.404 26.95 16.858 27.902 16.522C28.882 16.186 29.876 16.018 30.884 16.018C32.396 16.018 33.74 16.186 34.916 16.522C36.12 16.858 37.17 17.264 38.066 17.74L39.956 12.448C39.732 12.308 39.368 12.112 38.864 11.86C38.36 11.608 37.73 11.37 36.974 11.146C36.218 10.894 35.336 10.684 34.328 10.516C33.32 10.32 32.2 10.222 30.968 10.222C28.84 10.222 26.866 10.558 25.046 11.23C23.226 11.902 21.658 12.896 20.342 14.212C19.026 15.5 17.99 17.096 17.234 19C16.478 20.876 16.1 23.018 16.1 25.426C16.1 30.27 17.332 34.008 19.796 36.64ZM64.2218 36.892C64.6138 37.956 64.9638 38.992 65.2718 40H72.2858C71.1938 36.864 70.1578 33.966 69.1778 31.306C68.1978 28.646 67.2318 26.14 66.2798 23.788C65.3558 21.436 64.4318 19.21 63.5078 17.11C62.5838 14.982 61.6458 12.91 60.6938 10.894H54.4358C53.4558 12.91 52.5038 14.982 51.5798 17.11C50.6838 19.21 49.7598 21.436 48.8078 23.788C47.8838 26.14 46.9318 28.646 45.9518 31.306C44.9718 33.966 43.9358 36.864 42.8438 40H49.6478C49.9558 38.992 50.2918 37.956 50.6558 36.892C51.0478 35.828 51.4258 34.764 51.7898 33.7H63.1298L64.2218 36.892ZM56.7878 19.21C57.0678 18.482 57.2778 17.908 57.4178 17.488C57.5858 17.908 57.8098 18.482 58.0898 19.21C58.3698 19.938 58.6918 20.778 59.0558 21.73C59.4478 22.682 59.8538 23.732 60.2738 24.88C60.6938 26.028 61.1278 27.232 61.5758 28.492H53.3018C53.7498 27.232 54.1838 26.028 54.6038 24.88C55.0518 23.732 55.4578 22.682 55.8218 21.73C56.1858 20.778 56.5078 19.938 56.7878 19.21ZM76.0534 10.894V40H96.6754V34.498H82.6054V27.484H94.2394V22.108H82.6054V16.396H95.7094V10.894H76.0534ZM120.97 40V34.372H108.076V10.894H101.524V40H120.97Z" fill="white"/>
</g>
<defs>
<filter id="filter0_d_1898_49" x="139" y="0" width="210" height="13" filterUnits="userSpaceOnUse" color-interpolation-filters="sRGB">
<feFlood flood-opacity="0" result="BackgroundImageFix"/>
<feColorMatrix in="SourceAlpha" type="matrix" values="0 0 0 0 0 0 0 0 0 0 0 0 0 0 0 0 0 0 127 0" result="hardAlpha"/>
<feOffset dy="4"/>
<feGaussianBlur stdDeviation="2"/>
<feComposite in2="hardAlpha" operator="out"/>
<feColorMatrix type="matrix" values="0 0 0 0 0 0 0 0 0 0 0 0 0 0 0 0 0 0 0.25 0"/>
<feBlend mode="normal" in2="BackgroundImageFix" result="effect1_dropShadow_1898_49"/>
<feBlend mode="normal" in="SourceGraphic" in2="effect1_dropShadow_1898_49" result="shape"/>
</filter>
<filter id="filter1_d_1898_49" x="139" y="44" width="210" height="13" filterUnits="userSpaceOnUse" color-interpolation-filters="sRGB">
<feFlood flood-opacity="0" result="BackgroundImageFix"/>
<feColorMatrix in="SourceAlpha" type="matrix" values="0 0 0 0 0 0 0 0 0 0 0 0 0 0 0 0 0 0 127 0" result="hardAlpha"/>
<feOffset dy="4"/>
<feGaussianBlur stdDeviation="2"/>
<feComposite in2="hardAlpha" operator="out"/>
<feColorMatrix type="matrix" values="0 0 0 0 0 0 0 0 0 0 0 0 0 0 0 0 0 0 0.25 0"/>
<feBlend mode="normal" in2="BackgroundImageFix" result="effect1_dropShadow_1898_49"/>
<feBlend mode="normal" in="SourceGraphic" in2="effect1_dropShadow_1898_49" result="shape"/>
</filter>
<filter id="filter2_d_1898_49" x="140.554" y="10.222" width="207.138" height="38.366" filterUnits="userSpaceOnUse" color-interpolation-filters="sRGB">
<feFlood flood-opacity="0" result="BackgroundImageFix"/>
<feColorMatrix in="SourceAlpha" type="matrix" values="0 0 0 0 0 0 0 0 0 0 0 0 0 0 0 0 0 0 127 0" result="hardAlpha"/>
<feOffset dy="4"/>
<feGaussianBlur stdDeviation="2"/>
<feComposite in2="hardAlpha" operator="out"/>
<feColorMatrix type="matrix" values="0 0 0 0 0 0 0 0 0 0 0 0 0 0 0 0 0 0 0.25 0"/>
<feBlend mode="normal" in2="BackgroundImageFix" result="effect1_dropShadow_1898_49"/>
<feBlend mode="normal" in="SourceGraphic" in2="effect1_dropShadow_1898_49" result="shape"/>
</filter>
<filter id="filter3_d_1898_49" x="0" y="0" width="137" height="56" filterUnits="userSpaceOnUse" color-interpolation-filters="sRGB">
<feFlood flood-opacity="0" result="BackgroundImageFix"/>
<feColorMatrix in="SourceAlpha" type="matrix" values="0 0 0 0 0 0 0 0 0 0 0 0 0 0 0 0 0 0 127 0" result="hardAlpha"/>
<feOffset dy="4"/>
<feGaussianBlur stdDeviation="2"/>
<feComposite in2="hardAlpha" operator="out"/>
<feColorMatrix type="matrix" values="0 0 0 0 0 0 0 0 0 0 0 0 0 0 0 0 0 0 0.25 0"/>
<feBlend mode="normal" in2="BackgroundImageFix" result="effect1_dropShadow_1898_49"/>
<feBlend mode="normal" in="SourceGraphic" in2="effect1_dropShadow_1898_49" result="shape"/>
</filter>
</defs>
</svg>
